<svg width="83" height="48" viewBox="0 0 83 48" fill="none" xmlns="http://www.w3.org/2000/svg">
<path d="M32.3086 38L24.4375 9.81641H26.0586L33.0117 35.4023H33.0703L40.4922 9.81641H41.9961L49.418 35.4023H49.4766L56.4102 9.81641H58.0312L50.1797 38H48.7734L41.2734 12.6289H41.2148L33.7148 38H32.3086Z" fill="#457AE5" fill-opacity="0.2"/>
<path d="M11.9648 38.4102C6.125 38.4102 2.14062 35.3633 1.78906 30.6367L1.76953 30.3828H3.33203L3.35156 30.6367C3.70312 34.4648 7.0625 36.9648 12.0039 36.9648C16.8867 36.9648 20.1484 34.5234 20.1484 30.8125V30.793C20.1484 27.6094 18.2148 25.8906 13.2344 24.7578L10.207 24.0547C4.81641 22.8047 2.47266 20.5977 2.47266 16.75V16.7109C2.49219 12.4727 6.35938 9.40625 11.6523 9.40625C17.0039 9.40625 20.832 12.5312 21.1836 17.1797L21.2031 17.4336H19.6602L19.6406 17.1797C19.2695 13.332 16.125 10.8516 11.6328 10.8516C7.17969 10.8516 4.05469 13.2344 4.05469 16.6914V16.7109C4.05469 19.7773 6.06641 21.5547 10.6953 22.6289L13.7227 23.3125C19.4648 24.6211 21.7109 26.7695 21.7109 30.7344V30.7539C21.7109 35.3438 17.8047 38.4102 11.9648 38.4102Z" fill="#457AE5" fill-opacity="0.2"/>
<path d="M71.3086 38.4102C77.1484 38.4102 81.1328 35.3633 81.4844 30.6367L81.5039 30.3828H79.9414L79.9219 30.6367C79.5703 34.4648 76.2109 36.9648 71.2695 36.9648C66.3867 36.9648 63.125 34.5234 63.125 30.8125V30.793C63.125 27.6094 65.0586 25.8906 70.0391 24.7578L73.0664 24.0547C78.457 22.8047 80.8008 20.5977 80.8008 16.75V16.7109C80.7812 12.4727 76.9141 9.40625 71.6211 9.40625C66.2695 9.40625 62.4414 12.5312 62.0898 17.1797L62.0703 17.4336H63.6133L63.6328 17.1797C64.0039 13.332 67.1484 10.8516 71.6406 10.8516C76.0938 10.8516 79.2188 13.2344 79.2188 16.6914V16.7109C79.2188 19.7773 77.207 21.5547 72.5781 22.6289L69.5508 23.3125C63.8086 24.6211 61.5625 26.7695 61.5625 30.7344V30.7539C61.5625 35.3438 65.4688 38.4102 71.3086 38.4102Z" fill="#457AE5" fill-opacity="0.2"/>
</svg>
